<svg width="16" height="16" viewBox="0 0 1000 1000" fill="none" xmlns="http://www.w3.org/2000/svg">
<g clip-path="url(#clip0_16951_7549)">
<path d="M542.856 0C702.871 0 782.879 -0.000272624 843.996 31.1406C897.757 58.533 941.465 102.242 968.857 156.003C999.998 217.12 999.998 297.128 999.998 457.143V542.856C999.998 702.871 999.998 782.879 968.857 843.996C941.465 897.757 897.757 941.465 843.996 968.857C782.879 999.998 702.871 999.998 542.856 999.998H457.143C297.128 999.998 217.12 999.998 156.003 968.857C102.242 941.465 58.533 897.757 31.1406 843.996C-0.000284224 782.879 0 702.871 0 542.856V457.143C0 297.128 -7.64983e-05 217.12 31.1406 156.003C58.533 102.242 102.242 58.533 156.003 31.1406C217.12 -7.64983e-05 297.128 0 457.143 0H542.856ZM453.628 384.792C443.147 384.792 435.371 387.252 430.526 392.097C425.677 396.946 423.217 404.825 423.217 415.523V619.131H523.917C536.095 619.131 546.9 618.514 556.044 617.304C565.283 616.09 573.597 613.953 580.799 610.943C592.336 605.877 601.63 597.919 608.421 587.3C615.208 576.692 618.653 564.606 618.653 551.38C618.653 524.201 604.565 505.204 576.745 494.846C597.375 483.748 607.828 466.899 607.828 444.699C607.828 437.774 606.673 431.114 604.403 424.896C602.129 418.675 598.783 412.913 594.452 407.768C590.141 402.642 585.102 398.342 579.482 394.988C572.897 390.998 565.354 388.26 557.068 386.856C548.937 385.488 539.208 384.792 528.149 384.792H453.628ZM679.41 384.792C668.925 384.792 661.15 387.252 656.305 392.097C651.456 396.946 648.996 404.825 648.996 415.523V619.131H749.696C761.874 619.131 772.683 618.514 781.823 617.304C791.066 616.09 799.38 613.953 806.578 610.943C818.115 605.877 827.413 597.919 834.204 587.3C840.991 576.692 844.432 564.606 844.432 551.38C844.432 524.201 830.344 505.204 802.524 494.846C823.154 483.748 833.606 466.899 833.606 444.699C833.606 437.774 832.452 431.114 830.178 424.896C827.908 418.675 824.565 412.913 820.23 407.768C815.919 402.642 810.885 398.342 805.265 394.988C798.676 390.998 791.133 388.26 782.848 386.856C774.716 385.488 764.986 384.792 753.928 384.792H679.41ZM273.917 381.81C267.221 381.81 261.474 383.142 256.843 385.765C252.243 388.371 248.474 391.832 245.643 396.052C242.91 400.125 240.315 405.283 237.926 411.39L156.25 618.73H208.999L229.078 564.427H318.76L338.836 618.73H391.589L309.916 411.39C307.523 405.283 304.929 400.125 302.192 396.052C299.368 391.832 295.595 388.371 290.995 385.765C286.36 383.142 280.617 381.81 273.917 381.81ZM520.465 517.003C536.174 517.003 547.738 519.19 555.498 524.161C563.06 529.01 567.075 537.011 567.075 547.923C567.075 569.363 552.342 579.789 522.03 579.789H474.166V517.003H520.465ZM746.243 517.003C761.953 517.003 773.521 519.19 781.281 524.161C788.843 529.01 792.857 537.011 792.857 547.923C792.857 569.363 778.121 579.789 747.813 579.789H699.949V517.003H746.243ZM305.048 525.248H242.791L273.637 439.257L273.917 440.028L274.202 439.257L305.048 525.248ZM509.798 424.129C526.338 424.129 537.981 425.612 545.911 429.278C553.402 432.739 557.82 440.041 557.82 450.818C557.82 455.829 556.931 460.845 554.482 464.958C551.378 470.689 546.698 474.027 540.849 476.056C534.778 478.164 525.966 479.231 514.658 479.231H474.166V424.129H509.798ZM735.576 424.129C752.12 424.129 763.76 425.612 771.694 429.278C779.185 432.739 783.599 440.041 783.599 450.818C783.599 455.829 782.713 460.845 780.265 464.958C777.156 470.689 772.477 474.027 766.632 476.056C760.557 478.164 751.741 479.231 740.441 479.231H699.949V424.129H735.576Z" fill="url(#paint0_linear_16951_7549)"/>
<path d="M542.856 0C702.871 0 782.879 -0.000272624 843.996 31.1406C897.757 58.533 941.465 102.242 968.857 156.003C999.998 217.12 999.998 297.128 999.998 457.143V542.856C999.998 702.871 999.998 782.879 968.857 843.996C941.465 897.757 897.757 941.465 843.996 968.857C782.879 999.998 702.871 999.998 542.856 999.998H457.143C297.128 999.998 217.12 999.998 156.003 968.857C102.242 941.465 58.533 897.757 31.1406 843.996C-0.000284224 782.879 0 702.871 0 542.856V457.143C0 297.128 -7.64983e-05 217.12 31.1406 156.003C58.533 102.242 102.242 58.533 156.003 31.1406C217.12 -7.64983e-05 297.128 0 457.143 0H542.856ZM453.628 384.792C443.147 384.792 435.371 387.252 430.526 392.097C425.677 396.946 423.217 404.825 423.217 415.523V619.131H523.917C536.095 619.131 546.9 618.514 556.044 617.304C565.283 616.09 573.597 613.953 580.799 610.943C592.336 605.877 601.63 597.919 608.421 587.3C615.208 576.692 618.653 564.606 618.653 551.38C618.653 524.201 604.565 505.204 576.745 494.846C597.375 483.748 607.828 466.899 607.828 444.699C607.828 437.774 606.673 431.114 604.403 424.896C602.129 418.675 598.783 412.913 594.452 407.768C590.141 402.642 585.102 398.342 579.482 394.988C572.897 390.998 565.354 388.26 557.068 386.856C548.937 385.488 539.208 384.792 528.149 384.792H453.628ZM679.41 384.792C668.925 384.792 661.15 387.252 656.305 392.097C651.456 396.946 648.996 404.825 648.996 415.523V619.131H749.696C761.874 619.131 772.683 618.514 781.823 617.304C791.066 616.09 799.38 613.953 806.578 610.943C818.115 605.877 827.413 597.919 834.204 587.3C840.991 576.692 844.432 564.606 844.432 551.38C844.432 524.201 830.344 505.204 802.524 494.846C823.154 483.748 833.606 466.899 833.606 444.699C833.606 437.774 832.452 431.114 830.178 424.896C827.908 418.675 824.565 412.913 820.23 407.768C815.919 402.642 810.885 398.342 805.265 394.988C798.676 390.998 791.133 388.26 782.848 386.856C774.716 385.488 764.986 384.792 753.928 384.792H679.41ZM273.917 381.81C267.221 381.81 261.474 383.142 256.843 385.765C252.243 388.371 248.474 391.832 245.643 396.052C242.91 400.125 240.315 405.283 237.926 411.39L156.25 618.73H208.999L229.078 564.427H318.76L338.836 618.73H391.589L309.916 411.39C307.523 405.283 304.929 400.125 302.192 396.052C299.368 391.832 295.595 388.371 290.995 385.765C286.36 383.142 280.617 381.81 273.917 381.81ZM520.465 517.003C536.174 517.003 547.738 519.19 555.498 524.161C563.06 529.01 567.075 537.011 567.075 547.923C567.075 569.363 552.342 579.789 522.03 579.789H474.166V517.003H520.465ZM746.243 517.003C761.953 517.003 773.521 519.19 781.281 524.161C788.843 529.01 792.857 537.011 792.857 547.923C792.857 569.363 778.121 579.789 747.813 579.789H699.949V517.003H746.243ZM305.048 525.248H242.791L273.637 439.257L273.917 440.028L274.202 439.257L305.048 525.248ZM509.798 424.129C526.338 424.129 537.981 425.612 545.911 429.278C553.402 432.739 557.82 440.041 557.82 450.818C557.82 455.829 556.931 460.845 554.482 464.958C551.378 470.689 546.698 474.027 540.849 476.056C534.778 478.164 525.966 479.231 514.658 479.231H474.166V424.129H509.798ZM735.576 424.129C752.12 424.129 763.76 425.612 771.694 429.278C779.185 432.739 783.599 440.041 783.599 450.818C783.599 455.829 782.713 460.845 780.265 464.958C777.156 470.689 772.477 474.027 766.632 476.056C760.557 478.164 751.741 479.231 740.441 479.231H699.949V424.129H735.576Z" fill="url(#paint1_radial_16951_7549)"/>
<path d="M542.856 0C702.871 0 782.879 -0.000272624 843.996 31.1406C897.757 58.533 941.465 102.242 968.857 156.003C999.998 217.12 999.998 297.128 999.998 457.143V542.856C999.998 702.871 999.998 782.879 968.857 843.996C941.465 897.757 897.757 941.465 843.996 968.857C782.879 999.998 702.871 999.998 542.856 999.998H457.143C297.128 999.998 217.12 999.998 156.003 968.857C102.242 941.465 58.533 897.757 31.1406 843.996C-0.000284224 782.879 0 702.871 0 542.856V457.143C0 297.128 -7.64983e-05 217.12 31.1406 156.003C58.533 102.242 102.242 58.533 156.003 31.1406C217.12 -7.64983e-05 297.128 0 457.143 0H542.856ZM453.628 384.792C443.147 384.792 435.371 387.252 430.526 392.097C425.677 396.946 423.217 404.825 423.217 415.523V619.131H523.917C536.095 619.131 546.9 618.514 556.044 617.304C565.283 616.09 573.597 613.953 580.799 610.943C592.336 605.877 601.63 597.919 608.421 587.3C615.208 576.692 618.653 564.606 618.653 551.38C618.653 524.201 604.565 505.204 576.745 494.846C597.375 483.748 607.828 466.899 607.828 444.699C607.828 437.774 606.673 431.114 604.403 424.896C602.129 418.675 598.783 412.913 594.452 407.768C590.141 402.642 585.102 398.342 579.482 394.988C572.897 390.998 565.354 388.26 557.068 386.856C548.937 385.488 539.208 384.792 528.149 384.792H453.628ZM679.41 384.792C668.925 384.792 661.15 387.252 656.305 392.097C651.456 396.946 648.996 404.825 648.996 415.523V619.131H749.696C761.874 619.131 772.683 618.514 781.823 617.304C791.066 616.09 799.38 613.953 806.578 610.943C818.115 605.877 827.413 597.919 834.204 587.3C840.991 576.692 844.432 564.606 844.432 551.38C844.432 524.201 830.344 505.204 802.524 494.846C823.154 483.748 833.606 466.899 833.606 444.699C833.606 437.774 832.452 431.114 830.178 424.896C827.908 418.675 824.565 412.913 820.23 407.768C815.919 402.642 810.885 398.342 805.265 394.988C798.676 390.998 791.133 388.26 782.848 386.856C774.716 385.488 764.986 384.792 753.928 384.792H679.41ZM273.917 381.81C267.221 381.81 261.474 383.142 256.843 385.765C252.243 388.371 248.474 391.832 245.643 396.052C242.91 400.125 240.315 405.283 237.926 411.39L156.25 618.73H208.999L229.078 564.427H318.76L338.836 618.73H391.589L309.916 411.39C307.523 405.283 304.929 400.125 302.192 396.052C299.368 391.832 295.595 388.371 290.995 385.765C286.36 383.142 280.617 381.81 273.917 381.81ZM520.465 517.003C536.174 517.003 547.738 519.19 555.498 524.161C563.06 529.01 567.075 537.011 567.075 547.923C567.075 569.363 552.342 579.789 522.03 579.789H474.166V517.003H520.465ZM746.243 517.003C761.953 517.003 773.521 519.19 781.281 524.161C788.843 529.01 792.857 537.011 792.857 547.923C792.857 569.363 778.121 579.789 747.813 579.789H699.949V517.003H746.243ZM305.048 525.248H242.791L273.637 439.257L273.917 440.028L274.202 439.257L305.048 525.248ZM509.798 424.129C526.338 424.129 537.981 425.612 545.911 429.278C553.402 432.739 557.82 440.041 557.82 450.818C557.82 455.829 556.931 460.845 554.482 464.958C551.378 470.689 546.698 474.027 540.849 476.056C534.778 478.164 525.966 479.231 514.658 479.231H474.166V424.129H509.798ZM735.576 424.129C752.12 424.129 763.76 425.612 771.694 429.278C779.185 432.739 783.599 440.041 783.599 450.818C783.599 455.829 782.713 460.845 780.265 464.958C777.156 470.689 772.477 474.027 766.632 476.056C760.557 478.164 751.741 479.231 740.441 479.231H699.949V424.129H735.576Z" fill="url(#paint2_radial_16951_7549)"/>
</g>
<defs>
<linearGradient id="paint0_linear_16951_7549" x1="374.511" y1="-16.1133" x2="722.167" y2="999.998" gradientUnits="userSpaceOnUse">
<stop stop-color="#0068E8"/>
<stop offset="1" stop-color="#0057C2"/>
</linearGradient>
<radialGradient id="paint1_radial_16951_7549" cx="0" cy="0" r="1" gradientUnits="userSpaceOnUse" gradientTransform="translate(1000 1000) rotate(-135.328) scale(1422.37)">
<stop stop-color="#3601CE"/>
<stop offset="1" stop-color="#3601CE" stop-opacity="0"/>
</radialGradient>
<radialGradient id="paint2_radial_16951_7549" cx="0" cy="0" r="1" gradientUnits="userSpaceOnUse" gradientTransform="translate(1000 1000) rotate(-135.328) scale(1422.37)">
<stop stop-color="#0068E8" stop-opacity="0"/>
<stop offset="1" stop-color="#018DCE"/>
</radialGradient>
<clipPath id="clip0_16951_7549">
<rect width="999.998" height="1000" rx="285.714" fill="white"/>
</clipPath>
</defs>
</svg>
